<svg width="21" height="21" viewBox="0 0 21 21" fill="none" xmlns="http://www.w3.org/2000/svg">
<path fill-rule="evenodd" clip-rule="evenodd" d="M9.21318 11.8769L9.05376 11.6123C8.67749 10.9879 8.288 10.3422 7.86091 9.73969C7.53407 9.27919 7.48916 8.9165 7.70567 8.48662C7.97229 7.95929 7.86439 7.3975 7.76031 7.02123C7.50866 6.11206 7.22184 5.22169 6.92494 4.31356C6.77074 3.84088 6.33495 2.907 6.00463 2.41134C5.82663 2.15218 5.60245 1.928 5.34329 1.75L5.21902 1.95884C5.44755 2.11771 5.64552 2.31652 5.80344 2.5457C6.11845 3.01769 6.54867 3.93973 6.69521 4.3884C6.99072 5.29339 7.27684 6.18133 7.52676 7.08528C7.67538 7.62201 7.66355 8.03204 7.48951 8.37628C7.23298 8.88412 7.28659 9.34741 7.66355 9.87822C8.08298 10.4695 8.46737 11.1065 8.83959 11.7233L8.847 11.7355L9.00677 12.0004C9.16967 12.2698 9.11328 12.5751 8.86754 12.7599C8.69405 12.8878 8.50185 12.988 8.29774 13.0572C7.91486 13.1898 7.76936 13.3276 7.92321 13.7961C8.08646 14.2935 8.00501 14.5664 7.63257 14.7708L7.51701 14.8338L7.58906 14.9441C7.77111 15.2226 7.82923 15.3754 7.69349 15.5417C7.4192 15.8776 7.34541 16.2358 7.45575 16.7036C7.619 17.398 7.48568 17.9156 7.0485 18.2856C6.83241 18.4667 6.56727 18.5792 6.28692 18.609C6.26081 18.6117 6.12471 18.6149 5.93466 18.618C6.05063 18.5631 6.15868 18.4929 6.25594 18.4092C6.90405 17.8429 6.89222 17.1836 6.88247 16.7036C6.88247 16.6791 6.88215 16.6551 6.88183 16.6316C6.88122 16.5862 6.88064 16.5429 6.88247 16.5014C6.88569 16.1885 6.9621 15.8807 7.10559 15.6026C7.23403 15.3548 7.20131 15.1073 7.1484 14.8887C7.36455 14.6246 7.45471 14.3009 7.43173 13.8765C7.39741 13.7186 7.35406 13.5628 7.3019 13.4098C7.2114 13.2288 7.26222 13.1226 7.38579 12.8999L7.3859 12.8996C7.63303 12.4538 8.00658 11.7798 6.91171 9.81522C6.87992 9.75814 6.8508 9.70616 6.82434 9.65929C6.70321 9.44487 6.63673 9.32653 6.62873 9.24647C6.62211 9.1786 6.65762 9.1048 6.74498 8.92972C6.79441 8.83087 6.85532 8.70835 6.92877 8.54301C7.01822 8.39752 7.18286 7.96138 6.86228 6.97668C6.73907 6.59763 6.63429 6.22414 6.53335 5.86284C6.40422 5.4006 6.27056 4.92304 6.09861 4.43992C5.92666 3.95679 5.53612 3.08243 5.25314 2.5993C5.24791 2.59025 5.24261 2.58155 5.2373 2.57285C5.23199 2.56415 5.22668 2.55544 5.22146 2.54639C5.16423 2.45415 5.10097 2.36578 5.03211 2.28186L4.89532 2.50497C4.93465 2.55718 4.97328 2.61322 5.01018 2.67274L5.01021 2.67279C5.01994 2.68879 5.02968 2.70478 5.03907 2.72113C5.31544 3.19172 5.69623 4.04694 5.8654 4.52032C6.03209 4.98677 6.15721 5.4343 6.28904 5.90586L6.28905 5.90587L6.29492 5.92689C6.39656 6.29063 6.50168 6.66655 6.62664 7.05047C6.93468 7.99793 6.75508 8.35575 6.71609 8.41805C6.71209 8.42414 6.7086 8.43054 6.70565 8.4372C6.6329 8.60114 6.57199 8.72297 6.52326 8.82008C6.32451 9.21793 6.3165 9.26039 6.60819 9.77763C6.63464 9.82404 6.66365 9.87567 6.69521 9.93252C7.72446 11.7794 7.40319 12.3583 7.16859 12.7808L7.16822 12.7815C7.04548 13.0033 6.92961 13.2127 7.07809 13.5135C7.09549 13.5608 7.17451 13.8431 7.18495 13.8946C7.20444 14.2741 7.12055 14.5539 6.92076 14.7749L6.87934 14.8244L6.89605 14.8881C6.96044 15.1359 6.97993 15.3137 6.88839 15.4909C6.72658 15.8017 6.64002 16.1461 6.63569 16.4965V16.7078L6.63571 16.7089C6.64371 17.1668 6.65366 17.7361 6.09095 18.2275C5.90717 18.3883 5.65969 18.4788 5.41952 18.5526C5.33421 18.575 5.24727 18.5907 5.1595 18.5996L5.14349 18.6013L5.12887 18.6072C5.10834 18.6152 5.08362 18.6232 5.05613 18.6309L4.89149 18.633C5.05613 18.5571 5.21415 18.4614 5.31544 18.3343C5.76129 17.773 5.91665 17.0282 6.00961 16.5826L6.00985 16.5814L6.01838 16.5403L6.01838 16.5403C6.03378 16.4659 6.0471 16.4016 6.06067 16.3517C6.28309 15.493 6.34992 13.7968 6.35723 13.5946C6.86611 12.0251 6.33147 10.7602 6.01124 10.0032C5.89916 9.73795 5.8024 9.50892 5.79613 9.37247C5.78291 9.0693 5.85844 8.79154 5.93188 8.52317C6.00846 8.24228 6.08086 7.9767 6.0276 7.73026C5.98514 7.53569 5.93919 7.30909 5.89081 7.06892C5.72199 6.23598 5.51175 5.19941 5.26427 4.56279C5.13166 4.22098 4.84867 3.52518 4.60084 3.00341L4.45082 3.25716C4.67672 3.74864 4.91829 4.34385 5.03768 4.64946C5.2782 5.26833 5.48704 6.29445 5.65447 7.1173C5.7032 7.35817 5.74949 7.58581 5.79195 7.78143C5.83266 7.96998 5.77079 8.19643 5.69913 8.4587L5.69902 8.45913L5.6938 8.47861C5.62223 8.74581 5.54069 9.05027 5.55666 9.38326C5.56466 9.56307 5.6644 9.79884 5.79061 10.0971L5.79091 10.0979L5.791 10.0981C6.11854 10.8732 6.61371 12.0451 6.12437 13.5351L6.1188 13.5518V13.5692C6.1188 13.5876 6.0544 15.422 5.8292 16.2904C5.81249 16.3552 5.79439 16.437 5.77594 16.5317C5.68753 16.9563 5.53925 17.6667 5.12922 18.1829C5.00879 18.3347 4.73207 18.4447 4.52009 18.5216L4.76618 18.9393C4.88661 18.9194 5.00009 18.8975 5.09267 18.8732C5.6221 18.8672 6.25629 18.8585 6.31615 18.8509C6.64347 18.8157 6.95286 18.6837 7.20479 18.4718C7.71159 18.043 7.87553 17.4293 7.69209 16.6483C7.59881 16.2508 7.65346 15.9747 7.88145 15.6959C8.10943 15.4171 7.99004 15.1307 7.86021 14.9173C8.35517 14.5824 8.28069 14.1066 8.15434 13.7217C8.05339 13.4136 8.08646 13.3889 8.3771 13.2887C8.60505 13.2111 8.81967 13.0989 9.01338 12.9559C9.35728 12.6969 9.44047 12.2528 9.21318 11.8769ZM4.12435 4.76502L4.0965 4.66303C4.05264 4.50222 4.00078 4.31391 3.94474 4.11865L4.1139 3.83218C4.19637 4.10499 4.27084 4.37675 4.33139 4.59774L4.33145 4.59794L4.3593 4.69923C4.66212 5.80193 5.15012 7.76194 5.01542 8.49777C4.85948 9.34776 5.00672 9.89459 5.17727 10.5277C5.3809 11.2831 5.61132 12.1393 5.45817 13.7363C5.44944 13.8311 5.43999 13.9415 5.4296 14.0628L5.42336 14.1355L5.42309 14.1386C5.36917 14.7663 5.2954 15.6248 5.16683 16.1665C5.00178 16.8727 4.70592 17.5418 4.29456 18.1391L4.15776 17.9062C4.51919 17.3578 4.78069 16.7497 4.93014 16.1101C5.05266 15.5939 5.1255 14.7554 5.17928 14.1363L5.1811 14.1153C5.19293 13.9643 5.20477 13.8278 5.21591 13.7137C5.36453 12.1606 5.14005 11.327 4.942 10.5915L4.94197 10.5914L4.94182 10.5909C4.76367 9.92977 4.60996 9.35934 4.77559 8.4546C4.86783 7.95199 4.63045 6.60703 4.12435 4.76502ZM3.55309 7.18062L3.56693 7.29629C3.79761 9.22461 4.07752 11.5644 4.19285 11.9371C4.19947 11.9593 4.69095 14.1299 3.60113 16.9629L3.75672 17.2281C4.18907 16.1588 4.45009 15.0279 4.53014 13.8772C4.60358 12.7463 4.46296 11.9917 4.42572 11.8657C4.31556 11.5071 4.01566 8.9981 3.79612 7.16144L3.79612 7.16139L3.7961 7.16127L3.7961 7.16124L3.795 7.15208C3.66796 6.08941 3.55797 5.17015 3.50854 4.85653L3.31014 5.19242C3.36484 5.60771 3.44767 6.29981 3.54087 7.07851L3.54088 7.07856L3.54091 7.07883L3.54093 7.07898L3.54093 7.07899L3.55309 7.18062ZM3.14097 16.1798L2.95857 15.8665C3.00278 15.6577 3.0449 15.4387 3.08075 15.21C3.39958 13.2713 3.29412 11.4832 2.76748 9.89495C2.67887 9.62806 2.67178 8.88689 2.66553 8.23189V8.23188L2.6655 8.22872L2.66517 8.19589C2.66183 7.8622 2.65871 7.55137 2.64287 7.41319C2.60667 7.1027 2.57743 6.78805 2.55028 6.47861L2.76296 6.11835C2.76451 6.13897 2.76629 6.15893 2.76803 6.17861L2.77201 6.22486L2.78426 6.35877C2.8151 6.69648 2.8468 7.04359 2.88583 7.38499C2.90358 7.54058 2.90671 7.85837 2.91019 8.22629C2.91541 8.80061 2.92307 9.58691 2.99965 9.81803C3.78281 12.1801 3.5148 14.5668 3.14097 16.1798ZM1.79361 9.90296C1.64986 9.48144 1.69058 9.02268 1.7494 8.62935C1.78677 8.34882 1.79715 8.06535 1.78038 7.78284L1.99967 7.41109L2.00113 7.42503C2.00232 7.43567 2.0035 7.44627 2.0035 7.45669C2.03169 7.81973 2.05223 8.24751 1.98992 8.6652C1.93597 9.02964 1.89768 9.45255 2.02473 9.82429C2.55972 11.3924 2.54267 13.2309 2.34705 14.8261L2.1382 14.4721C2.36898 12.2469 2.09191 10.7773 1.79361 9.90296ZM1.38776 13.1943L1.14411 12.7804C1.13123 11.6238 1.02229 10.6495 0.816576 9.90501C0.782459 9.77856 0.762152 9.64878 0.756011 9.51795L1.00523 9.09608C0.988175 9.36131 0.987827 9.61228 1.05083 9.84026C1.28647 10.6913 1.39855 11.8316 1.38776 13.1943ZM0.240867 11.2433C0.240867 11.1036 0.241519 10.9517 0.242215 10.7892C0.242766 10.6608 0.243345 10.5258 0.243652 10.385L0 10.7992V10.8319L0.240867 11.2433ZM17.859 16.1797L18.0414 15.8665C17.9971 15.6576 17.955 15.4387 17.9178 15.2083C17.599 13.2695 17.7044 11.4814 18.2311 9.89318C18.3197 9.62629 18.3267 8.88513 18.333 8.23014V8.2301L18.333 8.22695L18.3331 8.21617V8.21613V8.21609V8.21606V8.21602V8.216V8.21597C18.3366 7.87407 18.3398 7.55261 18.3557 7.41141C18.3922 7.10093 18.4211 6.78627 18.4486 6.47683L18.2359 6.11657C18.2328 6.15307 18.2297 6.18752 18.2266 6.22195L18.2266 6.222L18.2266 6.22203L18.2265 6.22308C18.1935 6.60422 18.159 6.99824 18.1141 7.38356C18.0963 7.53915 18.0932 7.85694 18.0897 8.22486C18.0845 8.79918 18.0769 9.58548 18.0003 9.8166C17.2171 12.1786 17.4851 14.5654 17.859 16.1797ZM19.2505 8.62935C19.3094 9.02268 19.3501 9.48144 19.2063 9.90296C18.908 10.7773 18.631 12.2469 18.8617 14.4721L18.6529 14.8261C18.4573 13.2309 18.4406 11.3924 18.9756 9.82429C19.1023 9.45255 19.064 9.02964 19.0104 8.6652C18.9484 8.24751 18.9686 7.81973 18.9968 7.45669C18.9968 7.44626 18.998 7.43567 18.9992 7.42502L19.0006 7.41109L19.2199 7.78284C19.203 8.06534 19.2133 8.34881 19.2505 8.62935ZM17.4402 7.23648L17.4469 7.18062L17.4589 7.08016C17.5522 6.30079 17.6351 5.608 17.6898 5.19242L17.4914 4.85653C17.442 5.17015 17.332 6.08941 17.205 7.15208L17.2039 7.1611L17.2039 7.1613L17.2038 7.16163C16.9843 8.99827 16.6844 11.5071 16.5743 11.8657C16.537 11.9917 16.3964 12.7463 16.4699 13.8772C16.5499 15.0279 16.8109 16.1588 17.2433 17.2281L17.3989 16.9629C16.309 14.1299 16.8005 11.9593 16.8071 11.9371C16.9237 11.5606 17.2085 9.17592 17.4402 7.23648ZM16.9039 4.663L16.876 4.76498C16.3699 6.60699 16.1325 7.95195 16.2248 8.45457C16.3904 9.3593 16.2367 9.92973 16.0586 10.5908L16.0584 10.5914L16.0584 10.5915C15.8603 11.3269 15.6358 12.1606 15.7848 13.7136C15.7956 13.8278 15.8074 13.9642 15.8196 14.1153L15.82 14.1197C15.8732 14.7399 15.9459 15.5871 16.0702 16.1108C16.2197 16.7504 16.4812 17.3584 16.8426 17.9069L16.7058 18.1397C16.2945 17.5424 15.9986 16.8734 15.8335 16.1672C15.7048 15.6245 15.631 14.7641 15.5774 14.1362C15.5645 13.9862 15.5526 13.8504 15.5426 13.7369C15.3895 12.1409 15.6199 11.2847 15.8231 10.5297L15.8234 10.5284C15.994 9.89524 16.1412 9.34842 15.9853 8.49842C15.8506 7.76259 16.3386 5.80259 16.6414 4.69989L16.6693 4.5986L16.6693 4.59849L16.6695 4.59793C16.73 4.37702 16.8044 4.10545 16.8868 3.83284L17.056 4.11931C16.9992 4.31388 16.9477 4.50219 16.9039 4.663ZM11.9469 11.6123L11.7872 11.8769C11.5595 12.2528 11.6427 12.6969 11.9863 12.9559C12.18 13.0989 12.3946 13.2111 12.6226 13.2887C12.9132 13.3889 12.9466 13.4136 12.8453 13.7217C12.7193 14.1066 12.6445 14.5824 13.1394 14.9173C13.0096 15.1307 12.8902 15.4171 13.1182 15.6959C13.3462 15.9747 13.4008 16.2508 13.3076 16.6483C13.1241 17.4293 13.2881 18.043 13.7949 18.4718C14.0468 18.6837 14.3562 18.8157 14.6835 18.8509C14.7434 18.8585 15.3776 18.8672 15.907 18.8732C15.9996 18.8975 16.113 18.9194 16.2338 18.9393L16.4796 18.5216C16.2676 18.4447 15.9912 18.3347 15.8708 18.1829C15.4604 17.6667 15.3125 16.9563 15.2241 16.5317C15.2053 16.437 15.1872 16.3552 15.1705 16.2904C14.9453 15.422 14.8809 13.5876 14.8809 13.5692V13.5518L14.8756 13.5351C14.3859 12.045 14.8812 10.873 15.2091 10.0979L15.2109 10.0936L15.2109 10.0935C15.3361 9.79694 15.435 9.56235 15.443 9.38326C15.4583 9.04257 15.3739 8.73313 15.2995 8.46014L15.2995 8.46012L15.2992 8.45913C15.2275 8.19668 15.1659 7.97008 15.2063 7.78143C15.2499 7.58994 15.2949 7.36777 15.3425 7.13255L15.3455 7.1173C15.5116 6.29445 15.7204 5.26833 15.9599 4.64946C16.0789 4.34385 16.3205 3.74864 16.5464 3.25716L16.3964 3.00341C16.1485 3.52518 15.8656 4.22098 15.7329 4.56279C15.4855 5.19941 15.2752 6.23598 15.1064 7.06892C15.058 7.30909 15.0121 7.53569 14.9696 7.73026C14.9167 7.9767 14.9888 8.24228 15.0657 8.52317L15.0662 8.52506C15.1391 8.79284 15.2146 9.07001 15.2011 9.37247C15.1948 9.50892 15.0981 9.73795 14.986 10.0032L14.9855 10.0042C14.6656 10.7614 14.1313 12.0259 14.64 13.5946C14.6473 13.7968 14.7141 15.493 14.9366 16.3517C14.952 16.4085 14.9675 16.484 14.9854 16.5718L14.9874 16.5814L14.9896 16.5919C15.0841 17.0386 15.2404 17.7769 15.6835 18.3343C15.7845 18.4614 15.9425 18.5571 16.1075 18.633L15.9425 18.6309C15.915 18.6232 15.8906 18.6152 15.8701 18.6072L15.8551 18.6013L15.8391 18.5996C15.7513 18.5907 15.6644 18.575 15.5791 18.5526C15.3389 18.4788 15.0914 18.3883 14.9077 18.2275C14.345 17.7361 14.3549 17.1668 14.3629 16.7089L14.3629 16.7078V16.4965C14.3596 16.1457 14.2741 15.8006 14.1134 15.4888C14.0215 15.3117 14.041 15.1338 14.1057 14.886L14.1221 14.8223L14.0782 14.7739C13.8781 14.5529 13.7942 14.273 13.8137 13.8936C13.8241 13.8421 13.9031 13.5598 13.9205 13.5125C14.0692 13.212 13.9534 13.0027 13.8308 12.7812L13.83 12.7798C13.5954 12.3572 13.2741 11.7784 14.3034 9.93148C14.335 9.87463 14.364 9.823 14.3904 9.77659C14.6821 9.25935 14.6741 9.21688 14.4757 8.81903C14.4266 8.72192 14.3657 8.6001 14.2933 8.43615L14.2919 8.43347L14.2919 8.43346C14.2901 8.43001 14.2872 8.42429 14.2825 8.41701C14.2435 8.3547 14.0639 7.99688 14.372 7.04943C14.4969 6.6655 14.6021 6.28958 14.7037 5.92584L14.7157 5.88282C14.8453 5.41927 14.9688 4.97746 15.1332 4.51928C15.3027 4.04694 15.6832 3.19172 15.9595 2.72113C15.9689 2.7048 15.9787 2.68881 15.9884 2.67283L15.9884 2.67274C16.0253 2.61322 16.064 2.55718 16.1033 2.50497L15.971 2.28186C15.9023 2.36579 15.8391 2.45416 15.782 2.54639L15.766 2.57287L15.75 2.5993C15.467 3.08243 15.0765 3.95679 14.9045 4.43992C14.7326 4.92304 14.5989 5.4006 14.4698 5.86284C14.3688 6.22414 14.2644 6.59763 14.1409 6.97668C13.8203 7.96138 13.9849 8.39752 14.0744 8.54301C14.1445 8.70093 14.2036 8.81978 14.2515 8.91627L14.2582 8.92972C14.3459 9.1048 14.381 9.1786 14.3744 9.24647C14.3664 9.32653 14.2999 9.44487 14.1788 9.65929C14.1523 9.70616 14.1232 9.75814 14.0914 9.81522C12.9964 11.7801 13.3702 12.454 13.6177 12.8999C13.7413 13.1226 13.7921 13.2288 13.7016 13.4098C13.6488 13.5635 13.6051 13.7202 13.5707 13.879C13.5477 14.3033 13.6379 14.627 13.854 14.8912C13.8015 15.1098 13.7684 15.3573 13.8969 15.6051C14.0403 15.8831 14.1167 16.1909 14.12 16.5038C14.1216 16.5453 14.1211 16.5887 14.1205 16.634V16.6341V16.6342C14.1203 16.6576 14.12 16.6815 14.12 16.706C14.1102 17.186 14.0984 17.8453 14.7465 18.4116C14.8438 18.4952 14.9519 18.5655 15.0678 18.6205C14.8777 18.6173 14.742 18.6142 14.7155 18.6114C14.4352 18.5817 14.17 18.4691 13.9539 18.288C13.5168 17.918 13.3834 17.4005 13.5467 16.706C13.657 16.2382 13.5832 15.8801 13.309 15.5442C13.1732 15.3778 13.2313 15.225 13.4134 14.9465L13.4854 14.8362L13.3699 14.7732C12.9974 14.5689 12.916 14.296 13.0792 13.7986C13.2331 13.3301 13.0876 13.1922 12.7047 13.0596C12.5007 12.9906 12.3086 12.8903 12.1352 12.7624C11.8895 12.5775 11.8331 12.2723 11.996 12.0029L12.1547 11.7376L12.1622 11.7253C12.5344 11.1086 12.9188 10.4716 13.3382 9.88031C13.7152 9.3495 13.7688 8.88621 13.5122 8.37837C13.3382 8.03413 13.3264 7.6241 13.475 7.08737C13.7253 6.18342 14.011 5.29548 14.3065 4.39049C14.4531 3.94182 14.8833 3.01977 15.1983 2.54779C15.3556 2.31798 15.5531 2.11846 15.7813 1.95884L15.6571 1.75C15.3979 1.928 15.1737 2.15218 14.9957 2.41134C14.6654 2.907 14.2296 3.84088 14.0754 4.31356C13.7785 5.22169 13.4917 6.11206 13.24 7.02123C13.136 7.3975 13.0284 7.95929 13.2947 8.48662C13.5112 8.9165 13.4663 9.27919 13.1394 9.73969C12.7127 10.3422 12.3229 10.9879 11.9469 11.6123ZM19.8558 12.7804L19.6122 13.1943C19.6014 11.8316 19.7135 10.6913 19.9491 9.84026C20.0121 9.61228 20.0118 9.36131 19.9947 9.09608L20.2453 9.51795C20.2391 9.64875 20.219 9.77851 20.1851 9.90501C19.9777 10.6495 19.8687 11.6238 19.8558 12.7804ZM20.7577 10.7892C20.7584 10.9517 20.7591 11.1036 20.7591 11.2433L21 10.8319V10.7992L20.7563 10.385C20.7566 10.5258 20.7572 10.6608 20.7577 10.7892Z" fill="#070707"/>
</svg>
